# xmcd CD database file
#
# Track frame offsets:
#	150
#	18162
#	29040
#	48075
#	61760
#	72797
#	84505
#	93630
#	110112
#	128595
#
# Disc length: 1912 seconds
#
# Revision: 0
# Processed by: cddbd v1.5PL3 Copyright (c) Steve Scherf et al.
# Submitted via: CDex 1.50
#
DISCID=7d07760a
DTITLE=greetje kauffeld - And Let The Music Play
DYEAR=1900
DGENRE=Jazz
TTITLE0=this is all i ask
TTITLE1=day by day
TTITLE2=cabaret
TTITLE3=by myself
TTITLE4=tristeza
TTITLE5=the greatest performance
TTITLE6=a time for love
TTITLE7=morenal
TTITLE8=mr bojangels
TTITLE9=you and i
EXTD=
EXTT0=
EXTT1=
EXTT2=
EXTT3=
EXTT4=
EXTT5=
EXTT6=
EXTT7=
EXTT8=
EXTT9=
PLAYORDER=
